<svg width="3716" height="487" viewBox="0 0 3716 487" fill="none" xmlns="http://www.w3.org/2000/svg">
<path d="M54.7109 62.1074H511.479V113.404H54.7109V62.1074Z" fill="#D19908"/>
<path d="M52.937 372.944H508.722V424.211H52.937V372.944Z" fill="#D19908"/>
<path d="M54.7109 186.309H395.851V237.878H54.7109V186.309Z" fill="#D19908"/>
<path d="M167.602 248.484H508.722V300.024L167.602 299.999V248.484Z" fill="#D19908"/>
<path d="M167.602 0H395.851V51.2564H167.602V0Z" fill="#D19908"/>
<path d="M167.602 435.059H395.851V486.282H167.602V435.059Z" fill="#D19908"/>
<path d="M0 124.192H142.847V175.65H0V124.192Z" fill="#D19908"/>
<path d="M420.602 310.724H563.469V362.124L420.602 362.125V310.724Z" fill="#D19908"/>
<path d="M2003.69 123.643C2032.37 123.622 2113.3 120.394 2135.51 128.787C2154.22 135.983 2169.34 150.237 2177.61 168.474C2185.81 187.176 2186.34 208.346 2179.09 227.433C2170.44 249.879 2155.54 262.609 2134.17 272.142L2180.06 364.024C2168.27 363.77 2158.73 368.486 2152.54 357.189L2111.71 276.8H2025.47V364.024H2003.69V123.643ZM2025.47 254.994C2045.04 255.061 2064.76 255.104 2084.32 255.208C2109.23 255.342 2126.45 257.142 2146.25 238.96C2166.47 215.331 2168.44 180.201 2143.83 159.031C2136.84 153.077 2128.5 148.94 2119.53 146.986C2106.37 144.083 2042.67 145.365 2025.47 145.447V254.994Z" fill="white"/>
<path d="M1540.85 123.644H1717.34V167.253H1586.23V221.643H1695.26V265.255H1594.81C1591.36 265.101 1590.03 264.923 1586.65 266.053C1585.36 275.37 1586.19 309.279 1586.23 320.412H1717.34V364.024H1540.85V123.644Z" fill="white"/>
<path d="M1214.45 112.054L1330.87 364.024H1278.54L1263.9 330.126H1214.81H1164.7L1150.06 364.024H1097.79C1134.76 280.739 1176.02 195.038 1214.45 112.054ZM1183.43 287.312H1216.09H1245.09C1241.46 278.716 1217.55 220.279 1213.88 217.298L1183.43 287.312Z" fill="white"/>
<path d="M770.292 118.221C805.261 117.134 829.766 125.101 858.058 145.012L832.629 181.05C809.371 161.785 744.487 139.453 738.296 189.864C737.813 216.61 788.431 218.629 807.754 222.996C864.135 235.74 886.873 300.064 847.515 342.966C828.957 363.194 800.089 369.278 771.884 369.378C738.259 368.497 713.053 359.359 687 338.323L712.697 302.192C732.842 321.197 754.768 329.763 782.624 327.803C803.451 326.338 821.667 313.542 819.247 290.842C815.732 259.926 771.278 261.851 748.479 255.903C717.856 247.913 694.309 232.56 691.737 197.847C690.235 177.565 691.869 163.238 705.888 147.058C723.228 127.045 744.667 120.375 770.292 118.221Z" fill="white"/>
<path d="M2307.87 112.659C2310.9 116.273 2330.37 165.902 2333.66 173.872L2411.94 364.025H2388.24L2365.39 309.118H2310.25H2250.39C2243.16 327.343 2235.3 345.853 2227.83 364.025H2204.31C2236.73 281.405 2273.89 194.95 2307.87 112.659ZM2259.4 287.799H2308.96H2356.95C2349.91 270.887 2313.74 177.242 2307.85 170.038C2292.76 206.639 2272.77 251.404 2259.4 287.799Z" fill="white"/>
<path d="M1320.66 123.644H1508.63V167.253H1437.38V291.509V364.024H1391.91V167.253H1320.66V123.644Z" fill="white"/>
<path d="M3051.18 112.155C3063.92 123.796 3079.46 140.26 3092.07 152.862L3171.55 232.334L3291.9 112V364.024H3270.09V209.415V164.829L3171.55 263.117L3072.99 164.797V364.024H3051.18V112.155Z" fill="white"/>
<path d="M903.399 123.644H948.751V320.412H1068.86V364.024H903.399V123.644Z" fill="white"/>
<path d="M3529.49 112.336L3693.27 314.078V123.644H3715.08V375.86C3699.02 354.466 3677.4 329.294 3660.3 308.216L3551.18 173.688V364.025H3529.39L3529.49 112.336Z" fill="white"/>
<path d="M3323.13 123.644H3498.43V145.447H3344.94V232.996H3476.14V254.803H3367.2H3344.94V342.218H3498.43V364.024H3323.13V123.644Z" fill="white"/>
<path d="M2924.23 118.217C2951.08 115.515 2979.85 125.551 3002.44 139.507L2990.23 157.134C2970.13 144.348 2952.23 139.819 2928.78 139.362C2904.5 138.889 2873.58 155.12 2875.36 182.83C2880.62 239.032 2960.49 218.371 2992.75 254.64C3016.79 281.665 3018.37 318.3 2992.66 344.984C2973.65 364.733 2950.73 369.354 2923.97 369.365C2893.34 368.612 2872 360.336 2847.17 343.32L2859.62 325.623C2881.73 342.217 2909.13 350.213 2936.7 348.12C2965.17 345.89 2992.2 325.579 2988.32 294.826C2981.43 240.231 2906.93 257.812 2874.11 227.611C2855.95 213.113 2847.23 185.835 2855.77 162.977C2866.78 133.555 2895.68 120.78 2924.23 118.217Z" fill="white"/>
<path d="M1867.88 118.242C1907.72 117.15 1933.99 128.717 1962.94 155.244L1947.75 170.428C1941.48 164.133 1934.49 158.593 1926.93 153.92C1848.24 105.862 1751.14 178.987 1773.65 270.287C1780.5 296.995 1797.57 319.939 1821.2 334.168C1847.98 350.304 1875.42 351.202 1905.02 343.902C1924.32 336.786 1932.49 331.707 1947.71 317.904L1962.85 333.043C1884.94 408.354 1756.78 360.367 1748.36 253.401C1742.63 180.703 1796.54 123.443 1867.88 118.242Z" fill="white"/>
<path d="M2444.21 123.644H2613.52V145.447H2466.02V232.996H2574.49H2591.72V254.803H2466.02V364.024H2444.21V123.644Z" fill="white"/>
<path d="M2642.64 123.644H2827.86V145.447H2746.02V281.247V364.024H2724.22V145.447H2642.64V123.644Z" fill="white"/>
</svg>
